<svg id="DVVMu6Ex7t" 
xmlns="http://www.w3.org/2000/svg" 
viewBox="0 0 369.9130434782609 61.21111054351364" 
height="61.21111054351364" 
width="369.9130434782609" 
style="width: 369.913px; height: 61.2111px;
 position: absolute; top: 50%; left: 50%; 
 transform: translate(-50%, -50%) scale(0.613252);
  z-index: 0; cursor: pointer; overflow: visible;">
  <defs id="SvgjsDefs1047">
  <linearGradient id="SvgjsLinearGradient1055">
  <stop id="SvgjsStop1056" stop-color="#666666" offset="0"></stop>
  <stop id="SvgjsStop1057" stop-color="#cccccc" offset="1"></stop>
</linearGradient>

  </defs>
 
   <g id="SvgjsG1049" featurekey="XAPJzK-0" 
   transform="matrix(3.61696895459685,0,0,3.61696895459685,90.93624053156557,-16.59330217536771)" 
   fill="url(#SvgjsLinearGradient1055)">
   <path d="M6.26 16.2 c0 -0.6 2.22 -0.6 2.22 0 c0 2.24 -1.16 3.8 -3.28 3.8 c-2.22 0 -3.74 -1.38 -3.8 -3.5 l0 -0.04 l0 -6.9 l0 -0.04 c0.06 -2.14 1.66 -3.56 3.8 -3.52 c2.24 0.04 3.28 1.6 3.28 3.82 c0 0.6 -2.22 0.6 -2.22 0 c0 -0.22 0 -0.4 -0.04 -0.6 c-0.12 -1.18 -1.54 -0.96 -1.84 -0.8 c-0.58 0.28 -0.7 0.98 -0.7 1.46 l0 6.26 c0.02 0.48 0.12 1.18 0.7 1.46 c0.3 0.16 1.72 0.38 1.84 -0.78 c0.04 -0.2 0.04 -0.4 0.04 -0.62 z M10.88 19.56 l0 -13.14 c0 -0.6 2.28 -0.6 2.28 0 l0 13.14 c0 0.6 -2.28 0.6 -2.28 0 z M21.1 13.6 l0 -7.18 c0 -0.6 2.2 -0.6 2.2 0 l0 12.74 c0 1 -1.92 1.02 -2.12 0.52 l-3 -7.36 l0 7.24 c0 0.6 -2.22 0.6 -2.22 0 l0 -12.5 c0 -1.56 1.9 -1.08 2.2 -0.48 z M28.380000000000003 17.72 l2.86 0 c0.6 0 0.6 2.28 0 2.28 l-3.86 0 c-1.28 0 -1.28 0 -1.28 -1.08 l0 -11.84 c0 -1.08 0 -1.08 1.22 -1.1 l3.9 0.02 c0.6 0 0.6 2.28 0 2.28 l-2.84 0 l0 3.64 l2 0 c0.6 0 0.6 2.3 0 2.3 l-2 0 l0 3.5 z M38.68 11.14 l0.78 -4.68 c0.12 -0.62 2.38 -0.62 2.22 0.38 l-2.08 12.7 c-0.1 0.62 -3.3 0.62 -3.4 0 l-2.1 -12.7 c-0.16 -1 2.12 -0.98 2.22 -0.38 l0.78 4.68 l0.8 4.76 z M46.36 17.72 l2.86 0 c0.6 0 0.6 2.28 0 2.28 l-3.86 0 c-1.28 0 -1.28 0 -1.28 -1.08 l0 -11.84 c0 -1.08 0 -1.08 1.22 -1.1 l3.9 0.02 c0.6 0 0.6 2.28 0 2.28 l-2.84 0 l0 3.64 l2 0 c0.6 0 0.6 2.3 0 2.3 l-2 0 l0 3.5 z M59.98 18.86 c0.42 1 -1.82 1.48 -2.08 0.88 l-0.12 -0.28 c-0.66 -1.58 -1.38 -3.38 -2.04 -4.98 l-0.98 0 l0 5.08 c0 0.6 -2.28 0.6 -2.28 0 l0 -12.3 c0 -0.94 0.02 -1.24 1.42 -1.26 l2.06 0 c0.72 0 1.52 0.02 2.14 0.42 c1.36 0.86 1.78 2.38 1.76 3.92 c-0.02 1.28 -0.2 2.56 -1.46 3.5 c-0.14 0.08 -0.26 0.16 -0.38 0.24 c0.64 1.52 1.34 3.26 1.96 4.78 z M54.76 12.2 l1.72 0 c0.92 0 1.06 -1.12 1.1 -1.44 c0.02 -0.22 0.02 -1.02 -0.02 -1.4 c-0.08 -0.74 -0.36 -1.12 -1.28 -1.12 l-1.52 0 l0 3.96 z M69.14 16.42 c0.04 0.68 -0.14 1.44 -0.52 2 c-0.18 0.26 -0.38 0.52 -0.64 0.74 c-0.16 0.12 -0.32 0.26 -0.5 0.36 s-0.38 0.18 -0.56 0.26 c-0.6 0.26 -1.32 0.28 -1.94 0.12 c-0.32 -0.08 -0.62 -0.2 -0.9 -0.38 c-0.26 -0.16 -0.54 -0.36 -0.74 -0.6 c-0.22 -0.24 -0.42 -0.5 -0.56 -0.8 c-0.08 -0.18 -0.18 -0.38 -0.24 -0.58 c-0.04 -0.2 -0.1 -0.72 -0.1 -0.92 c0 -0.6 2.24 -0.6 2.24 0 c0 0.5 0.78 1.84 1.98 0.64 c0.5 -0.72 0.04 -1.54 -0.4 -2.14 c-0.68 -0.84 -1.56 -1.48 -2.28 -2.28 c-0.42 -0.46 -0.84 -0.98 -1.1 -1.56 c-0.14 -0.32 -0.26 -0.64 -0.34 -1 c-0.3 -1.66 0.22 -4.62 3.84 -4.28 c1.82 0.18 2.62 1.74 2.62 2.8 c0 0.6 -2.28 0.6 -2.28 0 c0 -0.8 -2.26 -0.9 -1.98 0.86 c0.04 0.18 0.08 0.36 0.16 0.54 c0.12 0.26 0.26 0.48 0.42 0.7 c0.2 0.26 0.4 0.48 0.64 0.7 c0.88 0.86 1.88 1.64 2.52 2.74 c0.38 0.64 0.6 1.34 0.66 2.08 z M73.82000000000001 17.72 l2.86 0 c0.6 0 0.6 2.28 0 2.28 l-3.86 0 c-1.28 0 -1.28 0 -1.28 -1.08 l0 -11.84 c0 -1.08 0 -1.08 1.22 -1.1 l3.9 0.02 c0.6 0 0.6 2.28 0 2.28 l-2.84 0 l0 3.64 l2 0 c0.6 0 0.6 2.3 0 2.3 l-2 0 l0 3.5 z"></path></g></svg>